<svg xmlns="http://www.w3.org/2000/svg" viewBox="0 0 488.64 86.24" width="489" height="86" role="img" aria-label="@iamkarshe">
  <title>@iamkarshe</title>
  <path fill="#5A6678" d="M20.98 61.41Q17.45 61.41 14.68 59.50Q11.90 57.59 10.32 54.10Q8.74 50.61 8.74 45.78V44.49Q8.74 39.66 10.36 36.17Q11.98 32.68 14.71 30.77Q17.45 28.86 20.83 28.86Q24.14 28.86 25.91 30.12Q27.67 31.38 28.90 33.76H29.76V29.87H35.38V53.06Q35.38 55.22 37.32 55.22H39.05Q40.99 55.22 40.99 53.06V33.18Q40.99 28.50 38.80 26.09Q36.60 23.68 31.92 23.68H11.62V18.50H32.50Q39.12 18.50 42.86 21.99Q46.61 25.48 46.61 32.61V54.78Q46.61 57.23 45.06 58.82Q43.51 60.40 41.06 60.40H35.30Q32.64 60.40 31.42 59.00Q30.19 57.59 30.19 55.65H29.33Q28.46 58.31 26.41 59.86Q24.36 61.41 20.98 61.41ZM22.06 56.08Q25.01 56.08 26.66 54.71Q28.32 53.34 29.04 51.00Q29.76 48.66 29.76 45.78V44.49Q29.76 41.75 29.04 39.41Q28.32 37.07 26.66 35.63Q25.01 34.19 22.06 34.19Q18.46 34.19 16.40 37.18Q14.35 40.17 14.35 44.49V45.78Q14.35 50.32 16.40 53.20Q18.46 56.08 22.06 56.08Z" />
  <path fill="#00C8FF" d="M76.46 19.07Q74.44 19.07 72.93 17.56Q71.42 16.05 71.42 14.03Q71.42 11.94 72.93 10.47Q74.44 8.99 76.46 8.99Q78.54 8.99 80.02 10.47Q81.50 11.94 81.50 14.03Q81.50 16.05 80.02 17.56Q78.54 19.07 76.46 19.07ZM61.19 60.40V55.22H73.72V29.87H62.49V24.69H79.34V55.22H91.00V60.40Z" />
  <path fill="#FF2A4F" d="M122.22 61.41Q117.54 61.41 113.76 59.28Q109.98 57.16 107.74 53.09Q105.51 49.02 105.51 43.12V41.97Q105.51 36.14 107.74 32.03Q109.98 27.93 113.76 25.80Q117.54 23.68 122.07 23.68Q125.74 23.68 128.73 25.30Q131.72 26.92 133.45 30.30H134.31V24.69H139.93V53.06Q139.93 55.22 141.87 55.22H143.67V60.40H139.86Q137.62 60.40 135.97 58.96Q134.31 57.52 134.31 54.35H133.45Q131.72 57.88 128.66 59.64Q125.60 61.41 122.22 61.41ZM122.79 56.08Q127.83 56.08 131.07 52.48Q134.31 48.88 134.31 42.98V42.11Q134.31 38.30 132.80 35.34Q131.29 32.39 128.70 30.70Q126.10 29.01 122.79 29.01Q119.48 29.01 116.89 30.63Q114.30 32.25 112.78 35.16Q111.27 38.08 111.27 41.97V43.12Q111.27 49.17 114.51 52.62Q117.75 56.08 122.79 56.08Z" />
  <path fill="#FF2A4F" d="M153.65 60.40V24.69H159.26V28.58H160.13Q161.06 26.06 162.86 24.87Q164.66 23.68 167.11 23.68Q169.70 23.68 171.40 25.05Q173.09 26.42 173.74 28.58H174.60Q177.05 23.68 182.38 23.68Q186.41 23.68 188.60 26.24Q190.80 28.79 190.80 32.90V60.40H185.18V34.77Q185.18 32.25 184.03 30.63Q182.88 29.01 180.36 29.01Q177.98 29.01 176.51 30.81Q175.03 32.61 175.03 36.21V60.40H169.42V34.48Q169.42 32.10 168.12 30.56Q166.82 29.01 164.66 29.01Q162.07 29.01 160.67 30.88Q159.26 32.75 159.26 35.78V60.40Z" />
  <path fill="#00C8FF" d="M208.12 60.40V10.00H213.74V39.52H214.96L228.57 24.69H235.48V25.12L220.65 41.46V42.76L237.21 59.97V60.40H230.30L215.10 44.70H213.74V60.40Z" />
  <path fill="#00C8FF" d="M266.41 61.41Q261.73 61.41 257.95 59.28Q254.17 57.16 251.94 53.09Q249.70 49.02 249.70 43.12V41.97Q249.70 36.14 251.94 32.03Q254.17 27.93 257.95 25.80Q261.73 23.68 266.26 23.68Q269.94 23.68 272.92 25.30Q275.91 26.92 277.64 30.30H278.50V24.69H284.12V53.06Q284.12 55.22 286.06 55.22H287.86V60.40H284.05Q281.82 60.40 280.16 58.96Q278.50 57.52 278.50 54.35H277.64Q275.91 57.88 272.85 59.64Q269.79 61.41 266.41 61.41ZM266.98 56.08Q272.02 56.08 275.26 52.48Q278.50 48.88 278.50 42.98V42.11Q278.50 38.30 276.99 35.34Q275.48 32.39 272.89 30.70Q270.30 29.01 266.98 29.01Q263.67 29.01 261.08 30.63Q258.49 32.25 256.98 35.16Q255.46 38.08 255.46 41.97V43.12Q255.46 49.17 258.70 52.62Q261.94 56.08 266.98 56.08Z" />
  <path fill="#00C8FF" d="M297.77 60.40V55.22H305.98V29.87H298.63V24.69H311.59V29.44H312.46Q313.82 26.49 316.38 25.08Q318.94 23.68 322.10 23.68Q327.43 23.68 330.78 27.21Q334.13 30.74 334.34 37.50L328.44 38.37Q328.44 33.40 326.06 31.20Q323.69 29.01 320.23 29.01Q315.84 29.01 313.72 32.21Q311.59 35.42 311.59 40.10V55.22H320.66V60.40Z" />
  <path fill="#00C8FF" d="M365.06 61.41Q359.51 61.41 355.98 59.50Q352.46 57.59 350.73 54.60Q349.00 51.62 348.78 48.45L354.11 47.15Q354.47 51.26 357.32 53.74Q360.16 56.22 364.77 56.22Q368.73 56.22 371.14 54.68Q373.55 53.13 373.55 50.32Q373.55 47.30 371.18 46.00Q368.80 44.70 363.47 44.34Q357.35 43.91 354.00 41.43Q350.66 38.94 350.66 34.34V33.90Q350.66 30.52 352.53 28.25Q354.40 25.98 357.35 24.83Q360.30 23.68 363.62 23.68Q368.37 23.68 371.50 25.30Q374.63 26.92 376.29 29.48Q377.94 32.03 378.30 34.77L372.98 36.06Q372.69 32.61 370.24 30.66Q367.79 28.72 363.90 28.72Q360.88 28.72 358.50 30.02Q356.13 31.31 356.13 33.90Q356.13 36.50 358.32 37.86Q360.52 39.23 366.35 39.66Q372.54 40.17 375.86 42.65Q379.17 45.14 379.17 49.89V50.32Q379.17 55.50 375.24 58.46Q371.32 61.41 365.06 61.41Z" />
  <path fill="#00C8FF" d="M396.78 60.40V10.00H402.39V31.17H403.26Q404.91 27.71 407.90 25.70Q410.89 23.68 415.21 23.68Q421.04 23.68 424.68 27.53Q428.31 31.38 428.31 39.09V60.40H422.70V40.24Q422.70 34.62 420.18 31.82Q417.66 29.01 413.34 29.01Q408.30 29.01 405.34 32.50Q402.39 35.99 402.39 41.82V60.40Z" />
  <path fill="#00C8FF" d="M460.75 61.41Q455.64 61.41 451.72 59.07Q447.79 56.73 445.56 52.59Q443.33 48.45 443.33 42.98V41.25Q443.33 36.21 445.63 32.25Q447.94 28.29 451.93 25.98Q455.93 23.68 460.90 23.68Q465.29 23.68 468.49 25.26Q471.70 26.85 473.75 29.30Q475.80 31.74 476.77 34.52Q477.74 37.29 477.74 39.66V44.27H448.94Q449.16 49.53 452.29 52.80Q455.42 56.08 460.90 56.08Q466.01 56.08 468.53 53.92Q471.05 51.76 471.98 48.74L477.31 50.18Q475.80 55.14 471.73 58.28Q467.66 61.41 460.75 61.41ZM449.09 39.09H472.13Q471.98 35.99 470.36 33.72Q468.74 31.46 466.22 30.23Q463.70 29.01 460.90 29.01Q456.14 29.01 452.90 31.89Q449.66 34.77 449.09 39.09Z" />
</svg>
